<svg fill="#000000" xmlns="http://www.w3.org/2000/svg"  viewBox="0 0 100 100" width="400px" height="400px"><path d="M 50 14 C 30.129562 14 14 30.129562 14 50 C 14 69.870438 30.129562 86 50 86 C 69.870438 86 86 69.870438 86 50 C 86 47.888849 85.800852 45.829349 85.453125 43.828125 A 1.0001 1.0001 0 0 0 84.466797 43 L 50 43 A 1.0001 1.0001 0 0 0 49 44 L 49 57 A 1.0001 1.0001 0 0 0 50 58 L 69.347656 58 C 66.195711 65.610934 58.761707 71 50 71 C 38.390466 71 29 61.609534 29 50 C 29 38.390466 38.390466 29 50 29 C 54.584928 29 58.812753 30.470592 62.265625 32.960938 A 1.0001 1.0001 0 0 0 63.558594 32.855469 L 72.826172 23.587891 A 1.0001 1.0001 0 0 0 72.751953 22.105469 C 66.551736 17.041632 58.625855 14 50 14 z M 50 16 C 57.754102 16 64.846138 18.654734 70.564453 23.021484 L 62.699219 30.886719 C 59.054752 28.45959 54.704128 27 50 27 C 37.309534 27 27 37.309534 27 50 C 27 52.990617 27.577825 55.846347 28.619141 58.46875 L 27.660156 59.078125 A 0.50010029 0.50010029 0 0 0 28.197266 59.921875 L 29.013672 59.402344 C 32.612907 67.411599 40.659069 73 50 73 C 60.133732 73 68.745844 66.434237 71.804688 57.318359 A 1.0001 1.0001 0 0 0 70.855469 56 L 51 56 L 51 45 L 83.556641 45 C 83.804493 46.641 84 48.297201 84 50 C 84 60.761159 79.006166 70.342141 71.212891 76.570312 L 67.833984 73.529297 A 0.50005 0.50005 0 0 0 67.46875 73.396484 A 0.50005 0.50005 0 0 0 67.166016 74.271484 L 70.414062 77.195312 C 64.73039 81.466902 57.663746 84 50 84 C 36.73841 84 25.26838 76.41814 19.662109 65.353516 L 21.767578 64.013672 A 0.50005 0.50005 0 0 0 21.5 63.087891 A 0.50005 0.50005 0 0 0 21.232422 63.169922 L 19.21875 64.451172 C 17.158163 60.065631 16 55.169667 16 50 C 16 44.63783 17.243972 39.569402 19.451172 35.060547 L 24.232422 38.103516 A 0.50005 0.50005 0 1 0 24.767578 37.259766 L 19.908203 34.167969 C 25.600035 23.363889 36.930398 16 50 16 z M 26.484375 38.451172 A 0.50005 0.50005 0 0 0 26.232422 39.376953 L 27.232422 40.013672 A 0.50005 0.50005 0 1 0 27.767578 39.169922 L 26.767578 38.533203 A 0.50005 0.50005 0 0 0 26.484375 38.451172 z M 25.5 60.541016 A 0.50005 0.50005 0 0 0 25.232422 60.623047 L 23.232422 61.896484 A 0.50005 0.50005 0 1 0 23.767578 62.740234 L 25.767578 61.466797 A 0.50005 0.50005 0 0 0 25.5 60.541016 z M 63.689453 69.996094 A 0.50005 0.50005 0 0 0 63.386719 70.871094 L 65.166016 72.470703 A 0.50005 0.50005 0 1 0 65.833984 71.728516 L 64.056641 70.128906 A 0.50005 0.50005 0 0 0 63.689453 69.996094 z"/></svg>