<svg fill="#000000" xmlns="http://www.w3.org/2000/svg"  viewBox="0 0 50 50" width="250px" height="250px"><path fill-rule="nonzero" d="M33 41.929l-18 .071 0-2 18 0 0 1.929zM41.189 20.626l-3.329-18.208 2.482-.456 2.829 18.362-1.982.302zM33 37l-18.1-1.661.273-1.962 18.028 1.661-.201 1.962zM33.362 31.896l-17.731-4.496.533-2.229 17.836 4.753-.638 1.972zM34.5 27l-15.387-9.299 1.239-2.194 15.312 9.499-1.164 1.994zM37.302 23.038l-10.201-14.958 1.959-1.415 9.987 15.133-1.745 1.24z"/><path fill-rule="nonzero" d="M37,29l0,17l-26,0l0,-17l-2,0l0,18.985l29.903,0.015l0,-0.015c0.03,0 0.097,-18.985 0.097,-18.985l-2,0Z"/></svg>