<svg fill="#000000" xmlns="http://www.w3.org/2000/svg"  viewBox="0 0 50 50" width="250px" height="250px"><path fill="none" stroke="#000000" stroke-linecap="round" stroke-linejoin="round" stroke-miterlimit="10" stroke-width="2" d="M8.424,15.674C13.5,2.208,24.725,3.042,25,3.042s12.839-0.244,17.222,12.631"/><path fill="none" stroke="#000000" stroke-linecap="round" stroke-linejoin="round" stroke-miterlimit="10" stroke-width="2" d="M41.699 26.173c0 0 2.365-.661 2.806-.947.462-.297 1.159-2.287 1.368-3.437.279-1.538.068-3.694-.316-4.489-2.307-1.765-7.077-2.639-7.077-2.639M12.482 14.592c0 0-4.821.927-7.127 2.692-.384.795-.429 2.872-.265 4.082.157 1.158.73 3.41 1.192 3.707"/><path fill="none" stroke="#000000" stroke-linecap="round" stroke-linejoin="round" stroke-miterlimit="10" stroke-width="2" d="M8.5 22.875c0 0 6.129-1.875 16.5-1.875 10.826 0 17.5 1.812 17.5 1.812l-2.25 8.5L37 34l-8-1-2-5h-4l-2 5-7 1.562-3.688-1.938-1.086-5.84M6.904 29.263c0 0 .242 2.351.554 3.289s1.049 2.698 1.424 2.698S10.885 35 10.885 35s.845 3.677 2.643 5.157M39.267 37.441l.983-3.128 2.557-.318c0 0 .568-1.244.755-2.057S44 28.688 44 28.312s-2.445-1.378-2.445-1.378"/><path fill="none" stroke="#000000" stroke-linecap="round" stroke-linejoin="round" stroke-miterlimit="10" stroke-width="2" d="M10,40c0,0,2.047,0.14,3.52,0.14s4.774-1.321,4.774-1.321l2.934-2.707c0,0,2.348,0.888,3.772,0.888s2.938-0.933,3.938-0.996C29.394,36.292,33,38,33,38s3.2,0.02,3.881,0.02S41,37,41,37s-2.921,5.074-4.864,5.818C34.812,43.326,31.037,44,30,44c-0.409,0-1.613-0.143-2.141-0.431C26.959,43.078,25,41.54,25,41.54s-2.867,2.046-3.659,2.358C20.317,44.302,18.371,45,17,45S12.67,43.546,10,40z"/><path fill="none" stroke="#000000" stroke-linecap="round" stroke-linejoin="round" stroke-miterlimit="10" stroke-width="2" d="M18.275 45.044c0 0 3.237 1.956 6.725 1.956 4.757 0 8.443-3.431 8.443-3.431M22.312 35c0 0 .69 2 2.688 2s2.688-2.188 2.688-2.188"/><path fill="none" stroke="#000000" stroke-miterlimit="10" stroke-width="2" d="M23 17L27 17M25 17L25 9M28 11L28 9 22 9 22 11"/><path d="M32.073 28.518c.266-.006.478-.225.474-.491-.004-.267-.224-.48-.492-.474-.266.005-.479.225-.473.491C31.586 28.31 31.806 28.523 32.073 28.518L32.073 28.518 32.073 28.518zM35.041 30.692c-.637-.308-1.334.082-2.603.106-.945.034-1.737.044-1.789-1.438-.052-1.485.552-2.713 1.497-2.746.944-.033 1.806 1.143 1.922 2.624.032.409-.013.706-.114.927C34.831 30.06 35.032 30.656 35.041 30.692L35.041 30.692 35.041 30.692zM18.544 28.876c.266-.007.476-.229.469-.495-.007-.268-.23-.478-.495-.47-.268.006-.478.229-.471.495C18.054 28.673 18.276 28.883 18.544 28.876L18.544 28.876 18.544 28.876zM20.003 29.653c.014 1.483-.771 1.394-1.717 1.403-.096.003-.186.004-.277.004-.105.003-.207.004-.305.002-.918-.002-1.503-.043-2.023.237.012-.032.24-.541 1.064-.749-.091-.2-.148-.479-.163-.865-.057-1.483.858-2.698 1.803-2.707C19.329 26.969 19.989 28.169 20.003 29.653L20.003 29.653 20.003 29.653z"/><path fill="none" stroke="#000000" stroke-linecap="round" stroke-linejoin="round" stroke-miterlimit="10" stroke-width="2" d="M19.972,21.154C11.076,22.827,3,32.589,3,32.589l5.5-9.714"/><path fill="none" stroke="#000000" stroke-linecap="round" stroke-linejoin="round" stroke-miterlimit="10" stroke-width="2" d="M36.371,21.947c-3.082,2.209-9.42,2.945-9.42,2.945s2.21-2.712,2.442-3.701C24.73,21.681,19,25,19,25l0.665-3.783"/></svg>