<svg fill="#000000" xmlns="http://www.w3.org/2000/svg"
 width="512" height="512" viewBox="0 0 512 512">

<g transform="translate(0.000000,512.000000) scale(0.100000,-0.100000)"
 stroke="none">
<path fill="#000000" d="M2375 4874 c-412 -43 -764 -165 -1082 -373 -142 -93 -217 -153 -347
-280 -374 -364 -602 -810 -683 -1331 -24 -160 -25 -510 0 -669 78 -499 291
-929 637 -1285 583 -601 1437 -838 2256 -626 725 187 1328 735 1589 1445 108
292 159 655 135 960 -25 324 -94 584 -230 860 -338 689 -987 1165 -1745 1280
-105 16 -443 28 -530 19z m-734 -1808 c23 -31 29 -49 29 -92 0 -69 -12 -83
-329 -399 l-251 -250 0 650 0 650 261 -260 c144 -143 274 -278 290 -299z m971
-133 c382 -382 692 -701 697 -716 14 -36 14 -98 0 -134 -13 -36 -523 -548
-565 -568 -40 -19 -117 -19 -152 -1 -15 8 -151 140 -303 293 -257 258 -279
283 -313 355 -65 136 -66 143 -66 836 0 342 3 622 8 622 4 0 316 -309 694
-687z m1718 169 c0 -9 -184 -201 -415 -432 l-415 -415 -345 345 c-190 190
-340 347 -335 348 13 5 1445 169 1483 171 19 1 27 -4 27 -17z m-2560 -952 c0
-352 -3 -640 -8 -640 -11 0 -559 552 -571 577 -16 32 -13 105 5 133 21 31 556
570 566 570 5 0 8 -288 8 -640z"/>
</g>
</svg>
