<svg id="Capa_1" enable-background="new 0 0 512 512" height="512" viewBox="0 0 512 512" width="512" xmlns="http://www.w3.org/2000/svg">
<g>
    <path id="neck" d="m319 372v96c0 8.28-6.72 15-15 15h-96c-8.28 0-15-6.72-15-15v-96c0-8.28 6.72-15 15-15h96c8.28 0 15 6.72 15 15z" fill="#453d81"/>
    <path id="neck-color" d="m319 372v96c0 8.28-6.72 15-15 15h-48v-126h48c8.28 0 15 6.72 15 15z" fill="#2e2654"/>
    <path id="display" d="m467 29h-422c-24.81 0-45 20.19-45 45v268c0 24.81 20.19 45 45 45h422c24.81 0 45-20.19 45-45v-268c0-24.81-20.19-45-45-45z" fill="#6b66d0"/>
    <path id="display-color" d="m512 74v268c0 24.81-20.19 45-45 45h-211v-358h211c24.81 0 45 20.19 45 45z" fill="#453d81"/>
    <path id="screen" d="m482 74v268c0 8.27-6.73 15-15 15h-422c-8.27 0-15-6.73-15-15v-268c0-8.27 6.73-15 15-15h422c8.27 0 15 6.73 15 15z" fill="#f9f9f9"/>
    <path id="screen-color" d="m482 74v268c0 8.27-6.73 15-15 15h-211v-298h211c8.27 0 15 6.73 15 15z" fill="#e2dff4"/>
    <path id="stand" d="m431 468c0 8.28-6.72 15-15 15h-320c-8.28 0-15-6.72-15-15s6.72-15 15-15h320c8.28 0 15 6.72 15 15z" fill="#6b66d0"/>
    <path id="stand-color" d="m431 468c0 8.28-6.72 15-15 15h-160v-30h160c8.28 0 15 6.72 15 15z" fill="#453d81"/>
    <path id="bullet1" d="m69.39 126.6c-5.614-5.614-6.087-14.948 0-21.21 9.804-9.518 25.61-2.471 25.61 10.61 0 13.284-16.19 20.033-25.61 10.6z" fill="#ff2929"/>
    <path id="data1" d="m224 131h-80c-8.284 0-15-6.716-15-15s6.716-15 15-15h80c8.284 0 15 6.716 15 15s-6.716 15-15 15z" fill="#e2dff4"/>
    <path id="bullet2" d="m80 195c-8.201 0-15-6.656-15-15 0-8.948 7.784-15.812 16.48-14.92 8.05.672 14.296 8.127 13.44 16.39-.6 7.351-7.091 13.53-14.92 13.53z" fill="#525cdd"/>
    <path id="data2" d="m224 195h-80c-8.284 0-15-6.716-15-15s6.716-15 15-15h80c8.284 0 15 6.716 15 15s-6.716 15-15 15z" fill="#e2dff4"/>
    <path id="bullet3" d="m69.39 254.6c-8.902-8.871-3.532-24.191 9.13-25.53 13.52-1.24 21.383 14.267 13.08 24.44-5.497 6.744-15.86 7.449-22.21 1.09z" fill="#6b66d0"/>
    <path id="data3" d="m224 259h-80c-8.284 0-15-6.716-15-15s6.716-15 15-15h80c8.284 0 15 6.716 15 15s-6.716 15-15 15z" fill="#e2dff4"/>
    <circle cx="360" cy="180" fill="#ffb454" r="87"/>
    <path id="pie-full" d="M, 273, 180C, 273, 246.97263122599657, 345.5, 288.83052574224445, 403.5, 255.34421012924616C, 430.41789367798975, 239.80315696824107, 447, 211.08210632201025, 447, 180C, 447, 113.02736877400343, 374.5, 71.16947425775555, 316.5, 104.65578987075384C, 289.58210632201025, 120.19684303175895, 273, 148.91789367798975, 273, 180z" fill="#ffb454"/>
    <path id="pie" d="m447 180h-87v-87c47.97 0 87 39.03 87 87z" fill="#00cb75"/>
    <path id="btn1" d="m168 323h-24c-8.284 0-15-6.716-15-15s6.716-15 15-15h24c8.284 0 15 6.716 15 15s-6.716 15-15 15z" fill="#ffe278"/>
    <path id="btn2" d="m312 323h-24c-8.284 0-15-6.716-15-15s6.716-15 15-15h24c8.284 0 15 6.716 15 15s-6.716 15-15 15z" fill="#00cb75"/>
</g>
</svg>