<?xml version="1.0" encoding="UTF-8"?>
<svg xmlns="http://www.w3.org/2000/svg" xmlns:xlink="http://www.w3.org/1999/xlink" width="945pt" height="945pt" viewBox="0 0 945 945" version="1.1">
<g id="surface1">
<path fill="#000000" id="k" d="M 55.40625 372.820312 C 55.152344 398.710938 55.027344 469.6875 55.152344 530.59375 L 55.339844 641.277344 L 94.113281 641.277344 L 94.300781 574.304688 L 94.425781 507.332031 L 104.492188 496.886719 C 109.996094 491.199219 114.875 486.507812 115.3125 486.507812 C 116.4375 486.507812 128.441406 502.703125 188.160156 584.808594 L 228.933594 640.964844 L 253.507812 640.964844 C 267.015625 640.964844 278.210938 640.777344 278.398438 640.589844 C 278.648438 640.402344 274.957031 634.960938 270.207031 628.582031 C 232.9375 577.867188 145.890625 457.742188 145.265625 456.117188 C 144.828125 454.992188 152.457031 446.863281 219.742188 376.449219 C 238.3125 357 256.574219 337.929688 260.261719 334.050781 C 263.953125 330.175781 267.015625 326.734375 267.015625 326.359375 C 267.015625 326.046875 257.761719 325.796875 243.441406 325.796875 L 219.867188 325.796875 L 214.800781 330.925781 C 212.050781 333.800781 192.914062 354.125 172.277344 376.136719 C 151.644531 398.148438 125.941406 425.539062 115.0625 437.042969 C 96.050781 457.304688 95.363281 457.929688 94.988281 456.117188 C 94.738281 455.117188 94.550781 425.414062 94.488281 390.019531 L 94.425781 325.796875 L 55.78125 325.796875 L 55.40625 372.820312Z "/>
<path fill="#000000" id="i" d="M 321.171875 372.820312 C 320.917969 398.710938 320.792969 469.6875 320.917969 530.59375 L 321.105469 641.277344 L 340.992188 641.464844 L 360.816406 641.589844 L 360.816406 523.589844 C 360.816406 458.617188 360.628906 387.578125 360.378906 365.632812 L 360.003906 325.796875 L 321.546875 325.796875 L 321.171875 372.820312Z "/>
<path fill="#000000" id="v" d="M 402.402344 327.171875 C 404.464844 334.300781 428.414062 407.089844 476.878906 553.230469 L 505.957031 640.964844 L 561.234375 640.964844 L 575.117188 598.566406 C 613.074219 482.503906 642.589844 392.144531 652.59375 361.441406 C 658.660156 342.679688 663.789062 326.984375 663.976562 326.546875 C 664.164062 325.984375 660.097656 325.796875 644.902344 325.796875 L 625.582031 325.796875 L 616.703125 352.5 C 611.886719 367.257812 592.875 424.976562 574.429688 480.878906 C 537.347656 593.5625 535.910156 597.816406 534.65625 597.816406 C 533.59375 597.816406 529.28125 584.996094 495.261719 480.253906 C 451.800781 346.746094 445.234375 326.859375 444.359375 326.296875 C 443.984375 326.046875 434.292969 325.796875 422.847656 325.796875 L 402.023438 325.796875 L 402.402344 327.171875Z "/>
<path fill="#000000" id="y" d="M 669.105469 326.484375 C 669.105469 327.234375 690.367188 369.007812 738.453125 462.746094 L 771.34375 526.839844 L 771.660156 584.058594 L 771.972656 641.277344 L 791.542969 641.464844 L 811.054688 641.589844 L 811.054688 529.15625 L 850.011719 455.429688 C 896.472656 367.632812 917.171875 328.359375 917.734375 326.859375 C 918.109375 325.859375 916.859375 325.796875 896.910156 325.796875 L 875.777344 325.796875 L 859.578125 357.5 C 816.621094 441.609375 798.296875 477.003906 794.921875 482.441406 L 793.355469 484.945312 L 792.042969 483.191406 C 789.917969 480.441406 772.910156 447.238281 741.328125 384.328125 L 711.9375 325.859375 L 690.554688 325.796875 C 675.417969 325.796875 669.105469 325.984375 669.105469 326.484375 L 669.105469 326.484375Z "/>
</g>
</svg>
